<svg width="158" height="34" viewBox="0 0 158 34" fill="none" xmlns="http://www.w3.org/2000/svg">
<path fill-rule="evenodd" clip-rule="evenodd" d="M61.5897 23.7252C61.5897 26.6686 60.3763 29.0838 57.9552 30.969C55.5283 32.8561 52.218 33.7978 48.0205 33.7978C45.646 33.7978 43.4657 33.5104 41.4835 32.9454C39.4992 32.3785 37.8392 31.7553 36.4977 31.0816V24.9891H36.7831C38.4761 26.3094 40.3613 27.3539 42.4406 28.1286C44.5141 28.9052 46.5081 29.2915 48.4127 29.2915C50.7736 29.2915 52.6219 28.9013 53.9576 28.1169C55.2915 27.3345 55.9574 26.0997 55.9574 24.4183C55.9574 23.1467 55.5943 22.1856 54.8701 21.5313C54.1421 20.877 52.75 20.3179 50.6881 19.8558C49.9251 19.683 48.9291 19.483 47.6963 19.252C46.4634 19.021 45.3412 18.7705 44.3297 18.5026C41.5262 17.7493 39.5322 16.6504 38.3596 15.1962C37.1869 13.7439 36.6006 11.9597 36.6006 9.8415C36.6006 8.51545 36.8724 7.26512 37.4218 6.09051C37.9674 4.9159 38.8003 3.86748 39.9147 2.94333C40.9922 2.03858 42.3591 1.32411 44.0229 0.794077C45.6868 0.265987 47.5468 0 49.6028 0C51.5249 0 53.4723 0.234923 55.441 0.704767C57.4116 1.17655 59.0502 1.74347 60.3588 2.41524V8.19511H60.0695C58.693 7.16222 57.0194 6.28854 55.0507 5.57407C53.0801 4.86348 51.1502 4.50624 49.2572 4.50624C47.2866 4.50624 45.6227 4.89454 44.2676 5.66726C42.9105 6.44192 42.2309 7.5913 42.2309 9.11926C42.2309 10.4473 42.6406 11.4491 43.4638 12.1208C44.2656 12.7945 45.5626 13.344 47.3585 13.7653C48.3506 13.9963 49.4611 14.2274 50.692 14.4584C51.9249 14.6875 52.95 14.8991 53.7732 15.0913C56.2719 15.6699 58.1998 16.6601 59.5589 18.0657C60.9141 19.4927 61.5897 21.3799 61.5897 23.7252ZM29.1789 17.6165H5.62649C5.62649 19.5833 5.9216 21.2918 6.51376 22.7518C7.10398 24.2099 7.91941 25.4078 8.94841 26.3417C9.94246 27.2561 11.119 27.9415 12.4839 28.4016C13.8507 28.8598 15.3534 29.0889 16.996 29.0889C19.1743 29.0889 21.3663 28.6521 23.5719 27.7784C25.7755 26.9047 27.3461 26.0446 28.282 25.1962H28.5712V31.0945C26.7462 31.8633 24.8843 32.504 22.9836 33.0224C21.0828 33.5388 19.087 33.799 16.994 33.799C11.6549 33.799 7.4884 32.3545 4.49265 29.4655C1.49884 26.5785 0 22.4761 0 17.1603C0 11.9027 1.43477 7.72842 4.30238 4.63948C7.16222 1.54666 10.9385 0.0012207 15.6233 0.0012207C19.9606 0.0012207 23.302 1.27679 25.6532 3.82017C28.0043 6.36548 29.177 9.98057 29.177 14.6674L29.1789 17.6165ZM23.9563 13.417C23.9369 10.5514 23.2263 8.33029 21.8206 6.75961C20.4188 5.19087 18.2851 4.40456 15.4195 4.40456C12.5363 4.40456 10.2395 5.26659 8.53099 6.99259C6.82052 8.71665 5.85365 10.8581 5.62455 13.4151L23.9563 13.417ZM89.9931 33.0798H95.4234V0.922636H89.9931V24.9837C88.5525 26.1215 87.0013 27.0534 85.3393 27.7834C83.6774 28.5153 82.1475 28.8784 80.7458 28.8784C79.1674 28.8784 77.9695 28.6881 77.1424 28.3037C76.3173 27.9193 75.6436 27.3038 75.1252 26.4554C74.6262 25.6322 74.3001 24.6362 74.1467 23.4713C73.9953 22.3064 73.9176 20.9105 73.9176 19.2738V0.922636H68.4892V21.8113C68.4892 25.8089 69.4289 28.8396 71.3102 30.9015C73.1934 32.9672 75.828 34.0001 79.212 34.0001C81.2292 34.0001 83.0756 33.6157 84.7491 32.8488C86.4188 32.0819 88.1681 30.9752 89.9931 29.5346V33.0798ZM123.769 6.76075H123.483C122.676 6.58213 121.895 6.45205 121.138 6.36857C120.379 6.29091 119.482 6.24819 118.447 6.24819C116.777 6.24819 115.166 6.61902 113.615 7.35874C112.06 8.09651 110.565 9.05173 109.126 10.2244V33.0798H103.699V0.922636H109.126V5.67351C111.273 3.94945 113.168 2.72436 114.809 2.00211C116.445 1.28376 118.121 0.922636 119.831 0.922636C120.769 0.922636 121.449 0.947876 121.872 0.994472C122.293 1.04107 122.926 1.13232 123.769 1.2624V6.76075ZM134.013 17.6166H157.57H157.572V14.6674C157.572 9.98063 156.393 6.36555 154.044 3.82023C151.691 1.27685 148.349 0.00128233 144.012 0.00128233C139.333 0.00128233 135.553 1.54866 132.693 4.63954C129.822 7.72848 128.387 11.9027 128.387 17.1603C128.387 22.4762 129.882 26.5786 132.879 29.4656C135.873 32.3546 140.042 33.7991 145.381 33.7991C147.474 33.7991 149.47 33.5389 151.37 33.0224C153.271 32.5041 155.133 31.8634 156.958 31.0945V25.1962H156.671C155.733 26.0447 154.162 26.9048 151.961 27.7784C149.753 28.6521 147.563 29.089 145.385 29.089C143.742 29.089 142.239 28.8599 140.871 28.4017C139.508 27.9415 138.329 27.2562 137.337 26.3417C136.306 25.4079 135.493 24.2099 134.901 22.7519C134.312 21.2919 134.013 19.5833 134.013 17.6166ZM150.209 6.75967C151.613 8.33035 152.326 10.5514 152.343 13.4171L134.011 13.4152C134.242 10.8582 135.211 8.71671 136.922 6.99265C138.628 5.26665 140.925 4.40462 143.808 4.40462C146.676 4.40462 148.806 5.18899 150.209 6.75967Z" fill="white"/>
</svg>
