<svg width="64" height="64" viewBox="0 0 64 64" fill="none" xmlns="http://www.w3.org/2000/svg">
<path d="M32.0003 58.6663C28.4984 58.6663 25.0308 57.9766 21.7954 56.6365C18.5601 55.2963 15.6204 53.3321 13.1441 50.8559C10.6679 48.3796 8.70366 45.4399 7.36354 42.2046C6.02341 38.9692 5.33366 35.5016 5.33366 31.9997C5.33366 28.4978 6.02341 25.0301 7.36354 21.7948C8.70367 18.5594 10.6679 15.6197 13.1441 13.1435C15.6204 10.6673 18.5601 8.70301 21.7954 7.36288C25.0308 6.02276 28.4984 5.33301 32.0003 5.33301L32.0003 31.9997L32.0003 58.6663Z" fill="white"/>
<path d="M32.0003 58.6663C28.4984 58.6663 25.0308 57.9766 21.7954 56.6365C18.5601 55.2963 15.6204 53.3321 13.1441 50.8559C10.6679 48.3796 8.70366 45.4399 7.36354 42.2046C6.02341 38.9692 5.33366 35.5016 5.33366 31.9997C5.33366 28.4978 6.02341 25.0301 7.36354 21.7948C8.70367 18.5594 10.6679 15.6197 13.1441 13.1435C15.6204 10.6673 18.5601 8.70301 21.7954 7.36288C25.0308 6.02276 28.4984 5.33301 32.0003 5.33301L32.0003 31.9997L32.0003 58.6663Z" fill="#2663DA" fill-opacity="0.08"/>
<path d="M32.0007 5.33268C35.5026 5.33268 38.9702 6.02244 42.2055 7.36256C45.4409 8.70269 48.3806 10.6669 50.8568 13.1432C53.3331 15.6194 55.2973 18.5591 56.6374 21.7945C57.9776 25.0298 58.6673 28.4974 58.6673 31.9994C58.6673 35.5013 57.9776 38.9689 56.6374 42.2042C55.2973 45.4396 53.3331 48.3793 50.8568 50.8555C48.3806 53.3318 45.4409 55.296 42.2055 56.6361C38.9702 57.9763 35.5026 58.666 32.0006 58.666L32.0007 31.9993L32.0007 5.33268Z" fill="white"/>
<path d="M31.9997 5.33301C17.2797 5.33301 5.33301 17.2797 5.33301 31.9997C5.33301 46.7197 17.2797 58.6663 31.9997 58.6663C46.7197 58.6663 58.6663 46.7197 58.6663 31.9997C58.6663 17.2797 46.7197 5.33301 31.9997 5.33301ZM31.9997 13.333C36.4263 13.333 39.9997 16.9063 39.9997 21.333C39.9997 25.7597 36.4263 29.333 31.9997 29.333C27.573 29.333 23.9997 25.7597 23.9997 21.333C23.9997 16.9063 27.573 13.333 31.9997 13.333ZM31.9997 51.1997C25.333 51.1997 19.4397 47.7863 15.9997 42.613C16.0797 37.3063 26.6663 34.3997 31.9997 34.3997C37.3063 34.3997 47.9197 37.3063 47.9997 42.613C44.5597 47.7863 38.6663 51.1997 31.9997 51.1997Z" fill="#2663DA"/>
</svg>
